<?xml version="1.0" standalone="no"?>
<!DOCTYPE svg PUBLIC "-//W3C//DTD SVG 20010904//EN"
 "http://www.w3.org/TR/2001/REC-SVG-20010904/DTD/svg10.dtd">
<svg version="1.0" xmlns="http://www.w3.org/2000/svg"
 width="465.000000pt" height="465.000000pt" viewBox="0 0 465.000000 465.000000"
 preserveAspectRatio="xMidYMid meet">
<metadata>
Created by potrace 1.14, written by Peter Selinger 2001-2017
</metadata>
<g transform="translate(0.000000,465.000000) scale(0.100000,-0.100000)"
fill="#000000" stroke="none">
<path d="M2218 3705 c-2 -1 -28 -5 -58 -9 -93 -11 -103 -13 -190 -36 -92 -25
-259 -92 -302 -122 -14 -10 -29 -18 -33 -18 -24 0 -177 -122 -270 -215 -118
-117 -206 -238 -268 -367 -34 -71 -93 -233 -103 -282 -2 -12 -7 -35 -10 -53
-3 -18 -13 -33 -24 -36 -16 -4 -18 -17 -18 -108 0 -57 0 -108 -1 -114 -1 -5
-35 40 -76 100 -42 60 -81 112 -88 116 -7 4 -41 6 -77 5 l-65 -1 0 -235 0
-235 75 0 75 0 0 112 c-1 69 3 109 8 104 5 -5 39 -54 76 -108 36 -54 76 -102
88 -108 15 -6 24 -22 29 -50 11 -68 71 -241 113 -326 130 -262 359 -493 616
-622 105 -52 247 -100 360 -122 158 -30 387 -26 541 10 270 62 475 176 670
370 116 116 194 222 264 362 45 90 104 263 114 335 4 26 11 50 15 52 4 3 28
-1 52 -8 59 -18 163 -11 216 15 75 36 115 113 116 223 0 76 -32 155 -77 190
-64 49 -192 66 -270 36 -36 -13 -44 -6 -52 51 -8 60 -64 228 -104 314 -58 122
-158 264 -265 371 -138 139 -257 223 -414 293 -115 50 -210 78 -371 107 -33 6
-287 14 -292 9z m1659 -1278 c36 -36 38 -155 2 -193 -39 -42 -108 -34 -134 17
-31 60 -13 169 33 193 28 15 76 7 99 -17z"/>
<path d="M59 2546 c0 -11 -1 -85 -1 -164 0 -134 2 -147 27 -197 36 -75 86 -99
205 -99 115 1 164 26 206 105 15 28 18 62 19 205 l1 171 -80 -1 -79 -1 -2
-160 c-1 -88 -3 -163 -3 -167 -3 -13 -57 -34 -78 -30 -12 2 -30 12 -40 23 -16
18 -18 40 -19 178 l0 158 -77 0 c-73 1 -78 -1 -79 -21z"/>
<path d="M4080 2550 c5 -9 47 -73 92 -141 l84 -124 -1 -85 c-1 -47 0 -90 2
-96 4 -12 153 -17 153 -5 1 3 2 49 3 102 l2 96 83 122 c45 67 85 127 88 134 4
11 -15 14 -81 14 l-86 0 -32 -54 c-18 -30 -37 -63 -43 -75 -7 -11 -14 -16 -17
-11 -3 4 -17 31 -33 58 -15 28 -32 57 -37 66 -8 13 -28 16 -98 16 -80 0 -87
-2 -79 -17z"/>
</g>
</svg>
